 http://leetleech.org/images/61869067469334967531.jpg

Screens:
 
http://leetleech.org/images/30979157174553670310.jpg
 
http://leetleech.org/images/62677728715457184007.jpg
 
http://leetleech.org/images/63933544537802108713.jpg
 
http://leetleech.org/images/98277171616187587618.jpg
 
http://leetleech.org/images/89433735621669442152.jpg

Alternative:
 
http://www.postimg.com/image/38000/photo-37273.jpg
 
http://www.postimg.com/image/38000/photo-37274.jpg
 
http://www.postimg.com/image/38000/photo-37275.jpg
 
http://www.postimg.com/image/38000/photo-37276.jpg
 
http://www.postimg.com/image/38000/photo-37277.jpg

ScreenCaps:
 
http://www.postimg.com/image/38000/photo-37281.jpg

Hall Pass (2011) DVDRip
Format                           : AVI
Format/Info                      : Audio Video Interleave
Format profile                   : OpenDML
File size                        : 1.22 GiB
Duration                         : 1h 49mn
Overall bit rate                 : 1 594 Kbps
Writing application              : VirtualDubMod 1.5.10.2 (build 2542/release)
Writing library                  : VirtualDubMod build 2542/release
Original source form             : MAX TORRENTZ
Copyright                        : SIGISMUNT

Video
ID                               : 0
Format                           : MPEG-4 Visual
Format profile                   : AdvancedSimple@L5
Format settings, BVOP            : Yes
Format settings, QPel            : No
Format settings, GMC             : No warppoints
Format settings, Matrix          : Default (H.263)
Codec ID                         : XVID
Codec ID/Hint                    : XviD
Duration                         : 1h 49mn
Bit rate                         : 1 385 Kbps
Width                            : 640 pixels
Height                           : 272 pixels
Display aspect ratio             : 2.35:1
Frame rate                       : 23.976 fps
Resolution                       : 24 bits
Colorimetry                      : 4:2:0
Scan type                        : Progressive
Bits/(Pixel*Frame)               : 0.336
Stream size                      : 1.08 GiB (88%)
Writing library                  : XviD 1.2.1 (UTC 2008-12-04)

Audio
ID                               : 1
Format                           : MPEG Audio
Format version                   : Version 1
Format profile                   : Layer 3
Codec ID                         : 55
Codec ID/Hint                    : MP3
Duration                         : 1h 45mn
Bit rate mode                    : Constant
Bit rate                         : 192 Kbps
Channel(s)                       : 2 channels
Sampling rate                    : 48.0 KHz
Resolution                       : 16 bits
Stream size                      : 145 MiB (12%)
Alignment                        : Aligned on interleaves
Interleave, duration             : 25 ms (0.60 video frame)
Interleave, preload duration     : 7008 ms
 
http://www.imdb.com/title/tt0480687/
 
Source: DVD (perfect a/v/sync quality , sample included)
This release is not seedbox supported , please seed it to the MAX

Hall Pass (2011) DVDRip XviD-MAX Torrent Free Download
 
http://thepiratebay.org/user/extremezone/0/7

How To Get Your Maxspeed (uTorrent)

Torrent Client - Preferences - Bandwidth - Number of connections - Set aprox. 500 for each 
Torrent Client - Preferences - BiTorrent - Protocol Encryption - Forced
Bandwidth Allocation - High (Set download/upload limit - Unlimited)
Stop Other Active Torrents - Start downloading and wait for connections.
Enjoy and Seed for at least 1:1 ratio. Don't forget to say thanks/leave reviews.
Before downloading you should check/google search sample "release name""sample".
Greets to all actual/future p2p/scene QUALITY groups and affiliate websites.
Don't trust IMDb robot or bad ratings,always watch some trailers first.
Ignore stupid comments/fake/mislabeled/no-DVDrips/CAM/TS/RAR uploads.
Please spread this release/torrent to your friends/forums/etc.
If you need translation subs visit some subtitles sites.
Report if you see online streaming or other spam links.
Recommended movie player VLC PLAYER.